# xmcd
#
# Track frame offsets: 
#        150
#        15255
#        35382
#        56003
#        73273
#        103055
#        117242
#        138328
#        159403
#        176732
#        198429
#        218734
#        238093
#
# Disc length: 3457 seconds
#
# Revision: 0
# Processed by: cddbd v1.5.2PL0 Copyright (c) Steve Scherf et al.
# Submitted via: ExactAudioCopy v0.99pb5
#
DISCID=b50d7f0d
DTITLE=Michael Grimm - Michael Grimm
DYEAR=2011
DGENRE=Blues
TTITLE0=Gasoline and Matches (Feat. Ann Wilson)
TTITLE1=Something I Said
TTITLE2=Stay With Me (Baby)
TTITLE3=No Other Love
TTITLE4=Simple Man (Feat. Travis Tritt)
TTITLE5=Champagne and Wine
TTITLE6=Let's Make Love Again
TTITLE7=Red
TTITLE8=Suddenly You Are
TTITLE9=Falling
TTITLE10=I Am
TTITLE11=You Don't Know Me
TTITLE12=Stay With Me
EXTD=
EXTT0=
EXTT1=
EXTT2=
EXTT3=
EXTT4=
EXTT5=
EXTT6=
EXTT7=
EXTT8=
EXTT9=
EXTT10=
EXTT11=
EXTT12=
PLAYORDER=
